# xmcd
#
# Track frame offsets:
#	150
#	12094
#	26856
#	45671
#	58631
#	75940
#	90859
#	112950
#	138738
#	166398
#	190334
#	208360
#	225760
#	247782
#	267506
#	282368
#
# Disc length: 3960 seconds
#
# Revision: 3
# Processed by: cddbd v1.4PL0 Copyright (c) Steve Scherf et al.
# Submitted via: EasyCDDAExtractor 5.0.7
#
DISCID=ce0f7610
DTITLE=Geoff Muldaur - Beautiful Isle of Somewhere
DYEAR=2003
DGENRE=Blues
TTITLE0=The Common Cold
TTITLE1=My Tears Came Rolling Down
TTITLE2=Wild About My Lovin'
TTITLE3=Downtown Blues
TTITLE4=Gee Baby Ain't I Good To You
TTITLE5=Motherless Child
TTITLE6=Just A Little While To Stay Here
TTITLE7=The Wild Ox Moan
TTITLE8=I Can't See Your Face Anymore
TTITLE9=Trouble Soon Be Over
TTITLE10=Drop Down Mama
TTITLE11=Tennessee Blues
TTITLE12=Got To Find Blind Lemon Part 1
TTITLE13=Sloppy Drunk
TTITLE14=Prairie Lullaby
TTITLE15=Beautiful Isle Of Somewhere
EXTD=
EXTT0=
EXTT1=
EXTT2=
EXTT3=
EXTT4=
EXTT5=
EXTT6=
EXTT7=
EXTT8=
EXTT9=
EXTT10=
EXTT11=
EXTT12=
EXTT13=
EXTT14=
EXTT15=
PLAYORDER=
